<svg xmlns="http://www.w3.org/2000/svg" viewBox="0 0 400 280" role="img" aria-label="Illustration de Brachiosaurus" style="--peau:#9b8bc4">
<title>Brachiosaurus</title>
<style>
  .corps, .queue-g { transform-box: fill-box; transform-origin: 70% 60%; }
  .queue-g { animation: respire 4.4s ease-in-out infinite; }
  .paupiere { animation: cligne 6s ease-in-out infinite; }
  .bras { transform-box: fill-box; transform-origin: 0% 0%; animation: salue 3.6s ease-in-out infinite; }
  .aile-gauche, .aile-droite, .aile, .aile2 { transform-box: fill-box; transform-origin: 90% 50%; animation: bat 2.6s ease-in-out infinite; }
  .aile-droite, .aile2 { transform-origin: 10% 50%; animation-delay: -.2s; }
  .massue { transform-box: fill-box; transform-origin: 50% 50%; animation: balance 3.2s ease-in-out infinite; }
  @keyframes respire { 0%,100% { transform: scale(1,1); } 50% { transform: scale(1.012,1.022); } }
  @keyframes cligne { 0%,92%,100% { fill: transparent; } 95% { fill: var(--peau); } }
  @keyframes salue { 0%,100% { transform: rotate(0deg); } 50% { transform: rotate(-11deg); } }
  @keyframes bat { 0%,100% { transform: rotate(0deg); } 50% { transform: rotate(-7deg); } }
  @keyframes balance { 0%,100% { transform: translateY(0); } 50% { transform: translateY(-7px); } }
  @media (prefers-reduced-motion: reduce) { * { animation: none !important; } }
</style>
<path d="M0 252 Q60 242 130 250 T270 250 T400 246 L400 280 L0 280 Z" fill="#54497a" opacity=".10"/><ellipse cx="205" cy="256" rx="150" ry="13" fill="#54497a" opacity=".16"/><g>
    <path class="" d="M148 196 l-5 46" fill="none" stroke="#54497a" stroke-width="29" stroke-linecap="round" stroke-linejoin="round"/><path class="" d="M148 196 l-5 46" fill="none" stroke="#54497a" stroke-width="22" stroke-linecap="round" stroke-linejoin="round"/>
    <path class="" d="M262 186 l7 56" fill="none" stroke="#54497a" stroke-width="29" stroke-linecap="round" stroke-linejoin="round"/><path class="" d="M262 186 l7 56" fill="none" stroke="#54497a" stroke-width="22" stroke-linecap="round" stroke-linejoin="round"/>
    <g class="queue-g">
      <path class="cou" d="M286 134 Q296 96 306 62 Q312 36 330 26 L350 18 Q363 22 358 36 L343 44 Q333 54 329 74 Q321 110 317 142 Z" fill="#9b8bc4" stroke="#54497a" stroke-width="6" stroke-linejoin="round"/>
      <ellipse cx="349" cy="26" rx="17" ry="12" transform="rotate(-24 349 26)" fill="#9b8bc4" stroke="#54497a" stroke-width="5"/>
       <g class="oeil">
      <circle cx="348" cy="22" r="6.5" fill="#fffdf6" stroke="#54497a" stroke-width="2.5"/>
      <circle class="pupille" cx="349.17" cy="22" r="3.38" fill="#2a1f1a"/>
      <circle cx="351.25" cy="19.27" r="1.43" fill="#fff"/>
      <ellipse class="paupiere" cx="348" cy="22" rx="8.1" ry="8.1" fill="transparent"/>
    </g><ellipse cx="340" cy="34" rx="5.5" ry="3.41" fill="#ff8f9c" opacity=".45"/>
      <path class="corps" d="M14 186 Q64 184 106 178 Q152 170 186 150 Q222 128 262 126 Q302 124 318 148 Q330 172 310 188 Q270 206 216 206 Q148 204 94 197 Q50 192 14 186 Z" fill="#9b8bc4" stroke="#54497a" stroke-width="6" stroke-linejoin="round"/>
      <path d="M70 188 Q140 196 210 198 Q268 198 306 184 Q262 210 196 208 Q122 204 70 188 Z" fill="#d6cdf2" opacity=".5"/>
    </g>
    <path class="" d="M176 198 l-7 48" fill="none" stroke="#54497a" stroke-width="33" stroke-linecap="round" stroke-linejoin="round"/><path class="" d="M176 198 l-7 48" fill="none" stroke="#9b8bc4" stroke-width="26" stroke-linecap="round" stroke-linejoin="round"/>
    <path class="" d="M288 184 l10 60" fill="none" stroke="#54497a" stroke-width="33" stroke-linecap="round" stroke-linejoin="round"/><path class="" d="M288 184 l10 60" fill="none" stroke="#9b8bc4" stroke-width="26" stroke-linecap="round" stroke-linejoin="round"/>
  </g>
</svg>