<svg xmlns="http://www.w3.org/2000/svg" viewBox="0 0 160 160" role="img" aria-label="Empreinte fossile mystère">
<rect width="160" height="160" rx="18" fill="#e8d5b0"/>
<circle cx="37.8" cy="98.5" r="1.5" fill="#6e5333" opacity=".18"/><circle cx="64.6" cy="69.4" r="0.8" fill="#6e5333" opacity=".18"/><circle cx="12.3" cy="106.7" r="1" fill="#6e5333" opacity=".18"/><circle cx="139.6" cy="122.2" r="1.2" fill="#6e5333" opacity=".18"/><circle cx="95.6" cy="102.8" r="1.3" fill="#6e5333" opacity=".18"/><circle cx="127.8" cy="113.6" r="1.3" fill="#6e5333" opacity=".18"/><circle cx="123.6" cy="49.8" r="1" fill="#6e5333" opacity=".18"/><circle cx="32.1" cy="8.4" r="2.2" fill="#6e5333" opacity=".18"/><circle cx="67.4" cy="55" r="1.8" fill="#6e5333" opacity=".18"/><circle cx="46" cy="133.8" r="0.8" fill="#6e5333" opacity=".18"/><circle cx="115.8" cy="85.7" r="0.9" fill="#6e5333" opacity=".18"/><circle cx="145.3" cy="95.3" r="1.3" fill="#6e5333" opacity=".18"/><circle cx="41" cy="26.2" r="1.8" fill="#6e5333" opacity=".18"/><circle cx="130.9" cy="66.9" r="2.3" fill="#6e5333" opacity=".18"/><circle cx="144.2" cy="143.3" r="1.6" fill="#6e5333" opacity=".18"/><circle cx="51.3" cy="20.8" r="1.2" fill="#6e5333" opacity=".18"/><circle cx="27.3" cy="7.9" r="2.1" fill="#6e5333" opacity=".18"/><circle cx="8.2" cy="123.6" r="2.2" fill="#6e5333" opacity=".18"/><circle cx="137.9" cy="155.9" r="1.2" fill="#6e5333" opacity=".18"/><circle cx="93.6" cy="159.9" r="1.4" fill="#6e5333" opacity=".18"/><circle cx="0.5" cy="137.6" r="1.4" fill="#6e5333" opacity=".18"/><circle cx="122.5" cy="81.3" r="1.1" fill="#6e5333" opacity=".18"/><circle cx="67.8" cy="5.5" r="2.2" fill="#6e5333" opacity=".18"/><circle cx="42.1" cy="135.6" r="1.4" fill="#6e5333" opacity=".18"/><circle cx="67.4" cy="129.1" r="1.2" fill="#6e5333" opacity=".18"/><circle cx="62.8" cy="38.1" r="0.9" fill="#6e5333" opacity=".18"/><circle cx="97.4" cy="109.4" r="1.7" fill="#6e5333" opacity=".18"/><circle cx="115.5" cy="46.6" r="2.2" fill="#6e5333" opacity=".18"/><circle cx="84.5" cy="73.2" r="1.3" fill="#6e5333" opacity=".18"/><circle cx="15.7" cy="146.9" r="1.6" fill="#6e5333" opacity=".18"/><circle cx="114.4" cy="118.3" r="2.3" fill="#6e5333" opacity=".18"/><circle cx="61.4" cy="27" r="2.2" fill="#6e5333" opacity=".18"/><circle cx="158.7" cy="18.2" r="0.8" fill="#6e5333" opacity=".18"/><circle cx="13.2" cy="86.7" r="1.9" fill="#6e5333" opacity=".18"/><circle cx="100.7" cy="110.2" r="2" fill="#6e5333" opacity=".18"/><circle cx="20" cy="37.3" r="2" fill="#6e5333" opacity=".18"/><circle cx="150.6" cy="96.2" r="1.3" fill="#6e5333" opacity=".18"/><circle cx="3.8" cy="27.8" r="2.2" fill="#6e5333" opacity=".18"/><circle cx="118.4" cy="71.2" r="1" fill="#6e5333" opacity=".18"/><circle cx="58.5" cy="64.5" r="2.2" fill="#6e5333" opacity=".18"/><circle cx="17.6" cy="123.6" r="2.4" fill="#6e5333" opacity=".18"/><circle cx="133.4" cy="89.4" r="1.8" fill="#6e5333" opacity=".18"/><circle cx="8.6" cy="47.8" r="1.3" fill="#6e5333" opacity=".18"/><circle cx="105.4" cy="146.6" r="2" fill="#6e5333" opacity=".18"/><circle cx="153" cy="43" r="1.6" fill="#6e5333" opacity=".18"/><circle cx="23.6" cy="126.9" r="1.1" fill="#6e5333" opacity=".18"/>
<g fill="none"><ellipse cx="80" cy="112" rx="28" ry="24" fill="#6e5333" stroke="#6e5333" stroke-width="7" stroke-linejoin="round"/><path d="M80 104 L80 50" stroke="#6e5333" stroke-width="34" stroke-linecap="round"/><path d="M72 106 L48 70" stroke="#6e5333" stroke-width="32" stroke-linecap="round"/><path d="M88 106 L112 70" stroke="#6e5333" stroke-width="32" stroke-linecap="round"/><ellipse cx="80" cy="112" rx="28" ry="24" fill="#9c7a4f"/><path d="M80 104 L80 50" stroke="#9c7a4f" stroke-width="27" stroke-linecap="round"/><path d="M72 106 L48 70" stroke="#9c7a4f" stroke-width="25" stroke-linecap="round"/><path d="M88 106 L112 70" stroke="#9c7a4f" stroke-width="25" stroke-linecap="round"/><path d="M80 104 L80 50" stroke="#7d5f3c" stroke-width="9.45" stroke-linecap="round" opacity=".35"/><path d="M72 106 L48 70" stroke="#7d5f3c" stroke-width="8.75" stroke-linecap="round" opacity=".35"/><path d="M88 106 L112 70" stroke="#7d5f3c" stroke-width="8.75" stroke-linecap="round" opacity=".35"/></g>
</svg>